<svg width="115" height="23" viewBox="0 0 115 23" fill="none" xmlns="http://www.w3.org/2000/svg">
<path d="M7.112 18.336C5 18.336 3.32 17.76 2.072 16.608C0.824 15.44 0.2 13.776 0.2 11.616V7.584C0.2 5.424 0.824 3.768 2.072 2.616C3.32 1.448 5 0.863999 7.112 0.863999C9.224 0.863999 10.904 1.448 12.152 2.616C13.4 3.768 14.024 5.424 14.024 7.584V11.616C14.024 13.776 13.4 15.44 12.152 16.608C10.904 17.76 9.224 18.336 7.112 18.336ZM7.112 15.504C8.296 15.504 9.216 15.16 9.872 14.472C10.528 13.784 10.856 12.864 10.856 11.712V7.488C10.856 6.336 10.528 5.416 9.872 4.728C9.216 4.04 8.296 3.696 7.112 3.696C5.944 3.696 5.024 4.04 4.352 4.728C3.696 5.416 3.368 6.336 3.368 7.488V11.712C3.368 12.864 3.696 13.784 4.352 14.472C5.024 15.16 5.944 15.504 7.112 15.504ZM16.8988 22.8V6.096H19.8748V7.536H20.3068C20.5788 7.072 21.0028 6.664 21.5788 6.312C22.1548 5.944 22.9788 5.76 24.0508 5.76C25.0108 5.76 25.8988 6 26.7148 6.48C27.5308 6.944 28.1868 7.632 28.6828 8.544C29.1788 9.456 29.4268 10.56 29.4268 11.856V12.24C29.4268 13.536 29.1788 14.64 28.6828 15.552C28.1868 16.464 27.5308 17.16 26.7148 17.64C25.8988 18.104 25.0108 18.336 24.0508 18.336C23.3308 18.336 22.7228 18.248 22.2268 18.072C21.7468 17.912 21.3548 17.704 21.0508 17.448C20.7628 17.176 20.5308 16.904 20.3548 16.632H19.9228V22.8H16.8988ZM23.1388 15.696C24.0828 15.696 24.8588 15.4 25.4668 14.808C26.0908 14.2 26.4028 13.32 26.4028 12.168V11.928C26.4028 10.776 26.0908 9.904 25.4668 9.312C24.8428 8.704 24.0668 8.4 23.1388 8.4C22.2108 8.4 21.4348 8.704 20.8108 9.312C20.1868 9.904 19.8748 10.776 19.8748 11.928V12.168C19.8748 13.32 20.1868 14.2 20.8108 14.808C21.4348 15.4 22.2108 15.696 23.1388 15.696ZM37.6274 18.336C36.4434 18.336 35.3954 18.088 34.4834 17.592C33.5874 17.08 32.8834 16.368 32.3714 15.456C31.8754 14.528 31.6274 13.44 31.6274 12.192V11.904C31.6274 10.656 31.8754 9.576 32.3714 8.664C32.8674 7.736 33.5634 7.024 34.4594 6.528C35.3554 6.016 36.3954 5.76 37.5794 5.76C38.7474 5.76 39.7634 6.024 40.6274 6.552C41.4914 7.064 42.1634 7.784 42.6434 8.712C43.1234 9.624 43.3634 10.688 43.3634 11.904V12.936H34.6994C34.7314 13.752 35.0354 14.416 35.6114 14.928C36.1874 15.44 36.8914 15.696 37.7234 15.696C38.5714 15.696 39.1954 15.512 39.5954 15.144C39.9954 14.776 40.2994 14.368 40.5074 13.92L42.9794 15.216C42.7554 15.632 42.4274 16.088 41.9954 16.584C41.5794 17.064 41.0194 17.48 40.3154 17.832C39.6114 18.168 38.7154 18.336 37.6274 18.336ZM34.7234 10.68H40.2914C40.2274 9.992 39.9474 9.44 39.4514 9.024C38.9714 8.608 38.3394 8.4 37.5554 8.4C36.7394 8.4 36.0914 8.608 35.6114 9.024C35.1314 9.44 34.8354 9.992 34.7234 10.68ZM46.055 18V6.096H49.031V7.656H49.463C49.655 7.24 50.015 6.848 50.543 6.48C51.071 6.096 51.871 5.904 52.943 5.904C53.871 5.904 54.679 6.12 55.367 6.552C56.071 6.968 56.615 7.552 56.999 8.304C57.383 9.04 57.575 9.904 57.575 10.896V18H54.551V11.136C54.551 10.24 54.327 9.568 53.879 9.12C53.447 8.672 52.823 8.448 52.007 8.448C51.079 8.448 50.359 8.76 49.847 9.384C49.335 9.992 49.079 10.848 49.079 11.952V18H46.055Z" fill="black"/>
<path d="M60.7481 18V1.2H63.9161V15.12H71.5961V18H60.7481ZM77.5479 18.336C76.6999 18.336 75.9399 18.192 75.2679 17.904C74.5959 17.6 74.0599 17.168 73.6599 16.608C73.2759 16.032 73.0839 15.336 73.0839 14.52C73.0839 13.704 73.2759 13.024 73.6599 12.48C74.0599 11.92 74.6039 11.504 75.2919 11.232C75.9959 10.944 76.7959 10.8 77.6919 10.8H80.9559V10.128C80.9559 9.568 80.7799 9.112 80.4279 8.76C80.0759 8.392 79.5159 8.208 78.7479 8.208C77.9959 8.208 77.4359 8.384 77.0679 8.736C76.6999 9.072 76.4599 9.512 76.3479 10.056L73.5639 9.12C73.7559 8.512 74.0599 7.96 74.4759 7.464C74.9079 6.952 75.4759 6.544 76.1799 6.24C76.8999 5.92 77.7719 5.76 78.7959 5.76C80.3639 5.76 81.6039 6.152 82.5159 6.936C83.4279 7.72 83.8839 8.856 83.8839 10.344V14.784C83.8839 15.264 84.1079 15.504 84.5559 15.504H85.5159V18H83.4999C82.9079 18 82.4199 17.856 82.0359 17.568C81.6519 17.28 81.4599 16.896 81.4599 16.416V16.392H81.0039C80.9399 16.584 80.7959 16.84 80.5719 17.16C80.3479 17.464 79.9959 17.736 79.5159 17.976C79.0359 18.216 78.3799 18.336 77.5479 18.336ZM78.0759 15.888C78.9239 15.888 79.6119 15.656 80.1399 15.192C80.6839 14.712 80.9559 14.08 80.9559 13.296V13.056H77.9079C77.3479 13.056 76.9079 13.176 76.5879 13.416C76.2679 13.656 76.1079 13.992 76.1079 14.424C76.1079 14.856 76.2759 15.208 76.6119 15.48C76.9479 15.752 77.4359 15.888 78.0759 15.888ZM87.7269 18V6.096H90.7029V7.656H91.1349C91.3269 7.24 91.6869 6.848 92.2149 6.48C92.7429 6.096 93.5429 5.904 94.6149 5.904C95.5429 5.904 96.3509 6.12 97.0389 6.552C97.7429 6.968 98.2869 7.552 98.6709 8.304C99.0549 9.04 99.2469 9.904 99.2469 10.896V18H96.2229V11.136C96.2229 10.24 95.9989 9.568 95.5509 9.12C95.1189 8.672 94.4949 8.448 93.6789 8.448C92.7509 8.448 92.0309 8.76 91.5189 9.384C91.0069 9.992 90.7509 10.848 90.7509 11.952V18H87.7269ZM101.94 12.096V11.712C101.94 10.464 102.188 9.4 102.684 8.52C103.18 7.624 103.836 6.944 104.652 6.48C105.484 6 106.388 5.76 107.364 5.76C108.452 5.76 109.276 5.952 109.836 6.336C110.396 6.72 110.804 7.12 111.06 7.536H111.492V6.096H114.468V20.112C114.468 20.928 114.228 21.576 113.748 22.056C113.268 22.552 112.628 22.8 111.828 22.8H103.86V20.16H110.772C111.22 20.16 111.444 19.92 111.444 19.44V16.344H111.012C110.852 16.6 110.628 16.864 110.34 17.136C110.052 17.392 109.668 17.608 109.188 17.784C108.708 17.96 108.1 18.048 107.364 18.048C106.388 18.048 105.484 17.816 104.652 17.352C103.836 16.872 103.18 16.192 102.684 15.312C102.188 14.416 101.94 13.344 101.94 12.096ZM108.228 15.408C109.156 15.408 109.932 15.112 110.556 14.52C111.18 13.928 111.492 13.096 111.492 12.024V11.784C111.492 10.696 111.18 9.864 110.556 9.288C109.948 8.696 109.172 8.4 108.228 8.4C107.3 8.4 106.524 8.696 105.9 9.288C105.276 9.864 104.964 10.696 104.964 11.784V12.024C104.964 13.096 105.276 13.928 105.9 14.52C106.524 15.112 107.3 15.408 108.228 15.408Z" fill="#00D884"/>
</svg>
